# xmcd
#
# Track frame offsets: 
#        150
#        15332
#        34480
#
# Disc length: 628 seconds
#
# Revision: 0
# Processed by: cddbd v1.5.2PL0 Copyright (c) Steve Scherf et al.
# Submitted via: ExactAudioCopy v0.95b4
#
DISCID=1a027203
DTITLE=Little Barrie - Free Salute
DYEAR=2005
DGENRE=Rock and Roll
TTITLE0=Free Salute
TTITLE1=Buy My Style
TTITLE2=Stones Throw Instrumental
EXTD=
EXTT0=
EXTT1=
EXTT2=
PLAYORDER=
